<?xml version="1.0" encoding="UTF-8"?>
<svg version="1.1" xmlns="http://www.w3.org/2000/svg" width="2140" height="2140">
<path d="M0 0 C706.2 0 1412.4 0 2140 0 C2140 706.2 2140 1412.4 2140 2140 C1433.8 2140 727.6 2140 0 2140 C0 1433.8 0 727.6 0 0 Z M192 192 C192 771.48 192 1350.96 192 1948 C771.48 1948 1350.96 1948 1948 1948 C1948 1368.52 1948 789.04 1948 192 C1368.52 192 789.04 192 192 192 Z " fill="#FFAE17" transform="translate(0,0)"/>
<path d="M0 0 C180.51 0 361.02 0 547 0 C547.08075728 171.85598879 547.08075728 171.85598879 547.09632993 237.8043431 C547.100412 255.04776754 547.10458766 272.29119195 547.10905199 289.5346163 C547.10959168 291.62012174 547.11012842 293.70562718 547.11066218 295.79113262 C547.11918289 328.98797048 547.1341807 362.18480149 547.15259444 395.38163521 C547.17149828 429.52435918 547.18377983 463.66707936 547.18782998 497.80980848 C547.18840622 502.64167325 547.18905749 507.473538 547.18975449 512.30540276 C547.18988933 513.25630332 547.19002418 514.20720389 547.19016311 515.18691963 C547.1925187 530.44122418 547.20177353 545.69551698 547.21366407 560.94981676 C547.22549362 576.31736138 547.22992227 591.68489444 547.22700275 607.05244345 C547.22549145 616.16192558 547.22944793 625.27136512 547.24159509 634.38083949 C547.24918154 640.49252946 547.24926756 646.60419204 547.24366363 652.71588401 C547.24068887 656.18121907 547.24173989 659.64641095 547.24976636 663.11174697 C547.28058708 677.25689962 547.00345176 691.33156707 546.09434319 705.44593716 C546.01470796 706.68580602 545.93507273 707.92567488 545.85302431 709.20311553 C543.03875225 749.52267736 534.22592836 790.65477563 516 827 C515.58782227 827.8338623 515.17564453 828.66772461 514.75097656 829.52685547 C508.92798551 841.23451278 502.63266543 852.3785833 495 863 C494.26136719 864.03253906 493.52273438 865.06507813 492.76171875 866.12890625 C485.25330292 876.35795588 477.17549384 886.21962312 468 895 C465.57649338 897.40393064 463.1726167 899.81904582 460.81640625 902.2890625 C454.06462586 909.28657493 446.7737249 915.20237735 439 921 C438.36739258 921.47695312 437.73478516 921.95390625 437.08300781 922.4453125 C362.9610141 977.97185361 262.33542002 988.10464355 172.89697266 975.734375 C120.941966 968.02612126 70.94468001 949.35857938 30 916 C29.45456543 915.5575293 28.90913086 915.11505859 28.34716797 914.65917969 C14.62590366 903.44023756 1.8185623 891.06207814 -9 877 C-9.77214844 876.04480469 -10.54429688 875.08960938 -11.33984375 874.10546875 C-59.92842105 813.0819001 -70.47215996 734.78121974 -70.20278788 659.16442466 C-70.19001991 654.95384661 -70.18909003 650.74326349 -70.18673706 646.53266907 C-70.18059694 638.6110556 -70.16429086 630.68949938 -70.14403808 622.76791078 C-70.11719136 612.02690706 -70.10664587 601.28588694 -70.09503365 590.54485798 C-70.07640193 573.69652936 -70.03650774 556.84832137 -70 540 C-25.45 540 19.1 540 65 540 C65.375 602.0625 65.375 602.0625 65.47802734 621.45727539 C65.5180598 627.33520586 65.5180598 627.33520586 65.56045532 633.21311951 C65.57782025 635.77507037 65.59175946 638.33704621 65.60269165 640.89903259 C65.66780629 655.52165555 65.98684729 670.08912345 66.91650391 684.68139648 C66.99548605 685.9386834 67.07446819 687.19597033 67.15584373 688.49135685 C68.44678613 707.23350192 72.22645099 725.14476509 78 743 C78.22913086 743.7120459 78.45826172 744.4240918 78.69433594 745.15771484 C91.0144492 782.53826168 116.72080767 813.31469569 151.57421875 831.4140625 C174.29230819 842.81436997 199.61454717 849.05974621 225.07421875 849.203125 C225.91232086 849.21013931 226.75042297 849.21715363 227.61392212 849.22438049 C230.30517001 849.24179147 232.99619784 849.24823309 235.6875 849.25 C237.06668106 849.25101212 237.06668106 849.25101212 238.47372437 849.25204468 C252.18091391 849.23605064 265.5446745 848.85977525 279 846 C279.8470752 845.82307617 280.69415039 845.64615234 281.56689453 845.46386719 C320.75834939 837.02038724 355.88219456 816.04583601 378 782 C394.75923175 755.40017727 403.83283625 725.16990859 407 694 C407.08306631 693.19637128 407.16613261 692.39274256 407.25171608 691.56476146 C408.24530552 680.58425977 408.15352318 669.61093248 408.15821838 658.5945282 C408.1627898 656.3187922 408.16779066 654.04305704 408.17318195 651.76732284 C408.18670646 645.5372322 408.19416486 639.307147 408.20060861 633.07704556 C408.20781222 627.04146277 408.21962942 621.00589011 408.23132664 614.97031479 C408.25508218 602.63119728 408.27430935 590.29207664 408.29092598 577.95294762 C408.30738555 565.74151875 408.32587603 553.53009571 408.34705925 541.31867409 C408.34837686 540.55846332 408.34969446 539.79825255 408.351052 539.0150051 C408.35775439 535.15403685 408.36449288 531.29306867 408.37124526 527.43210051 C408.41896622 500.10846656 408.46216328 472.78482714 408.50268555 445.46118164 C408.54205463 418.9221151 408.58349831 392.38305311 408.62768555 365.84399414 C408.63046289 364.17417071 408.63324016 362.50434728 408.63601738 360.83452386 C408.65859571 347.26578494 408.68131691 333.69704627 408.70407274 320.12830765 C408.80913838 257.41888083 408.90376649 194.70944226 409 132 C274.03 132 139.06 132 0 132 C0 88.44 0 44.88 0 0 Z " fill="#FFAE17" transform="translate(1226,592)"/>
<path d="M0 0 C4.47602743 1.45190575 8.59463509 3.15911328 12.8203125 5.23828125 C13.46728088 5.55481659 14.11424927 5.87135193 14.78082275 6.19747925 C16.17107327 6.87776404 17.56057878 7.5595731 18.94940186 8.24276733 C22.68573652 10.07990773 26.42837329 11.90407945 30.171875 13.7265625 C30.92814178 14.09478622 31.68440857 14.46300995 32.46359253 14.84239197 C39.0605145 18.0459499 45.70839146 21.13176157 52.375 24.1875 C65.47093066 30.20369001 78.40166489 36.54376657 91.33856201 42.89315796 C102.17593941 48.2098302 113.02439287 53.47341257 124 58.5 C136.89283792 64.4046371 149.61212568 70.64697215 162.34130859 76.89453125 C173.17776989 82.21074305 184.02532512 87.47383952 195 92.5 C207.89283792 98.4046371 220.61212568 104.64697215 233.34130859 110.89453125 C244.17776989 116.21074305 255.02532512 121.47383952 266 126.5 C278.89283792 132.4046371 291.61212568 138.64697215 304.34130859 144.89453125 C315.17776989 150.21074305 326.02532512 155.47383952 337 160.5 C349.89283792 166.4046371 362.61212568 172.64697215 375.34130859 178.89453125 C386.17776989 184.21074305 397.02532512 189.47383952 408 194.5 C420.89283792 200.4046371 433.61212568 206.64697215 446.34130859 212.89453125 C457.17776989 218.21074305 468.02532512 223.47383952 479 228.5 C491.880268 234.39888035 504.58755567 240.63434407 517.30404663 246.87640381 C531.92513124 254.05024576 546.60879361 261.04935872 561.4309082 267.79931641 C564.31281224 269.14619506 567.15472982 270.57736491 570 272 C570 336.68 570 401.36 570 468 C551.59834462 476.9379469 533.30724273 485.8110155 514.75 494.359375 C503.96864765 499.35891497 493.32871668 504.65767474 482.66088867 509.89343262 C470.76610694 515.72885084 458.8393038 521.45179265 446.79296875 526.96875 C435.94118325 531.96745731 425.22498754 537.23611198 414.5 542.5 C401.65973983 548.80207648 388.79802448 555.01271961 375.79296875 560.96875 C364.94118325 565.96745731 354.22498754 571.23611198 343.5 576.5 C330.65973983 582.80207648 317.79802448 589.01271961 304.79296875 594.96875 C293.94118325 599.96745731 283.22498754 605.23611198 272.5 610.5 C259.65973983 616.80207648 246.79802448 623.01271961 233.79296875 628.96875 C222.94118325 633.96745731 212.22498754 639.23611198 201.5 644.5 C188.65973983 650.80207648 175.79802448 657.01271961 162.79296875 662.96875 C151.94118325 667.96745731 141.22498754 673.23611198 130.5 678.5 C117.65973983 684.80207648 104.79802448 691.01271961 91.79296875 696.96875 C79.99508356 702.40326351 68.35359659 708.15403558 56.69393921 713.87741089 C42.07793823 721.04887536 27.38920558 728.01616037 12.58447266 734.78955078 C10.15817144 735.92591971 7.77091901 737.11812125 5.38671875 738.33984375 C2 740 2 740 0 740 C0 694.79 0 649.58 0 603 C9.24 598.71 18.48 594.42 28 590 C32.95932449 587.68956589 37.91816694 585.37825196 42.875 583.0625 C44.11456837 582.48369191 45.35415226 581.90491706 46.59375 581.32617188 C49.13514925 580.13961005 51.6764859 578.95291433 54.21777344 577.76611328 C59.85365032 575.13425654 65.49036317 572.50419121 71.12701416 569.87399292 C74.25137712 568.41606887 77.37568581 566.95802854 80.5 565.5 C81.74999974 564.91666611 82.99999974 564.33333278 84.25 563.75 C84.86875 563.46125 85.4875 563.1725 86.125 562.875 C98 557.33333333 109.875 551.79166667 121.75 546.25 C122.67815521 545.81685989 122.67815521 545.81685989 123.62506104 545.37496948 C124.87485551 544.79173342 126.12465205 544.20850181 127.37445068 543.62527466 C130.50261236 542.16548964 133.6307377 540.70562685 136.75878906 539.24560547 C142.34600931 536.63785486 147.93345656 534.03059829 153.52230835 531.42634583 C167.40320079 524.95815018 181.27202598 518.46529546 195.125 511.9375 C207.75893687 505.98430255 220.41416303 500.07936115 233.0859375 494.20703125 C240.35475913 490.83792102 247.61565343 487.45196224 254.875 484.0625 C255.49765747 483.77179626 256.12031494 483.48109253 256.76184082 483.18157959 C259.91389482 481.70992119 263.06585868 480.23806987 266.21777344 478.76611328 C271.85365032 476.13425654 277.49036317 473.50419121 283.12701416 470.87399292 C286.25137712 469.41606887 289.37568581 467.95802854 292.5 466.5 C293.74999974 465.91666611 294.99999974 465.33333278 296.25 464.75 C296.86875 464.46125 297.4875 464.1725 298.125 463.875 C423.75 405.25 423.75 405.25 425.62467957 404.37516785 C426.87576639 403.79131511 428.12683448 403.20742223 429.37788391 402.62348938 C432.4861038 401.17277454 435.59463694 399.72273913 438.70385742 398.27416992 C444.5293012 395.55925251 450.35132992 392.83762266 456.16287231 390.0930481 C458.88887728 388.80614543 461.61661239 387.52293384 464.34448242 386.23999023 C465.63636522 385.6311498 466.92741103 385.02052956 468.2175293 384.40795898 C475.05096147 381.16385895 481.75626405 378.19718893 489 376 C489 372.04 489 368.08 489 364 C487.15341797 363.43925781 487.15341797 363.43925781 485.26953125 362.8671875 C479.14848942 360.82246606 473.46632182 357.97541324 467.6875 355.125 C465.27161762 353.9475653 462.85513837 352.77146996 460.4375 351.59765625 C459.51278145 351.14799751 459.51278145 351.14799751 458.56938171 350.68925476 C452.1439208 347.57123148 445.67036105 344.55915115 439.1875 341.5625 C438.03386963 341.02890869 436.88023926 340.49531738 435.69165039 339.94555664 C433.32855606 338.85279909 430.96535539 337.76027147 428.60205078 336.66796875 C422.43670705 333.81303935 416.28093263 330.93765129 410.125 328.0625 C408.86743901 327.47532601 407.60987064 326.88816783 406.35229492 326.30102539 C403.82888501 325.12283651 401.30553721 323.94451474 398.78222656 322.76611328 C393.14634968 320.13425654 387.50963683 317.50419121 381.87298584 314.87399292 C378.74862288 313.41606887 375.62431419 311.95802854 372.5 310.5 C371.25000026 309.91666611 370.00000026 309.33333278 368.75 308.75 C306.875 279.875 245 251 179.37493896 220.37496948 C178.12514449 219.79173342 176.87534795 219.20850181 175.62554932 218.62527466 C172.49738764 217.16548964 169.3692623 215.70562685 166.24121094 214.24560547 C160.65399069 211.63785486 155.06654344 209.03059829 149.47769165 206.42634583 C135.59679921 199.95815018 121.72797402 193.46529546 107.875 186.9375 C95.24106313 180.98430255 82.58583697 175.07936115 69.9140625 169.20703125 C61.40511135 165.26311905 52.90657605 161.29695938 44.40991211 157.32666016 C43.16521147 156.74509655 41.92050114 156.16355366 40.67578125 155.58203125 C40.05636154 155.29263672 39.43694183 155.00324219 38.79875183 154.70507812 C34.75944911 152.81888591 30.71729693 150.9389206 26.67333984 149.06272888 C23.88962744 147.77106288 21.10674503 146.47761418 18.32391357 145.18405151 C16.9931492 144.56607692 15.66197819 143.94897717 14.3303833 143.33279419 C12.48614764 142.47930398 10.64342832 141.62253952 8.80078125 140.765625 C7.22550659 140.03520996 7.22550659 140.03520996 5.6184082 139.29003906 C3 138 3 138 0 136 C-0.36914349 133.62994194 -0.36914349 133.62994194 -0.36076355 130.59640503 C-0.36488754 129.44933075 -0.36901154 128.30225647 -0.3732605 127.12042236 C-0.36247467 125.85591248 -0.35168884 124.59140259 -0.34057617 123.28857422 C-0.33973028 121.94839497 -0.34020429 120.60821433 -0.34190369 119.26803589 C-0.34276657 115.6235214 -0.32509378 111.97930143 -0.30418181 108.33485556 C-0.28546359 104.52851945 -0.28366842 100.72217704 -0.28010559 96.915802 C-0.2707708 89.70511235 -0.24613773 82.49455868 -0.21605712 75.28392899 C-0.18255761 67.07607731 -0.16603832 58.86821923 -0.15097082 50.66031623 C-0.11958934 33.77346541 -0.06680111 16.88674707 0 0 Z " fill="#FFAE17" transform="translate(359,762)"/>
</svg>
